<svg width="130" height="39" viewBox="0 0 130 39" fill="none" xmlns="http://www.w3.org/2000/svg">
<path d="M8.47142 6.84992L2.09004 13.1425C1.44675 13.7769 1.30859 14.7637 1.75294 15.5503L10.2061 30.5147C10.4681 30.9784 10.9042 31.3185 11.4177 31.4595L15.8746 32.6838C16.5836 32.8786 17.3423 32.6686 17.8503 32.137L25.2086 24.4368C25.6989 23.9238 25.8806 23.1895 25.6861 22.5071L22.4472 11.1385C22.264 10.4952 21.7712 9.98606 21.1342 9.78191L10.4861 6.36943C9.77742 6.14232 9.00128 6.32743 8.47142 6.84992Z" fill="black"/>
<path d="M10.029 22.2308L6.30488 16.0093C6.10592 15.6769 6.04606 15.2929 6.26571 14.9738C6.59809 14.491 7.34606 13.6332 9.02899 12.2308M11.4177 31.4595L15.8746 32.6838C16.5836 32.8786 17.3423 32.6686 17.8503 32.137L25.2086 24.4368C25.6989 23.9238 25.8806 23.1895 25.6861 22.5071L22.4472 11.1385C22.264 10.4952 21.7712 9.98606 21.1342 9.78191L10.4861 6.36943C9.77742 6.14232 9.00128 6.32743 8.47142 6.84992L2.09004 13.1425C1.44675 13.7769 1.30859 14.7637 1.75294 15.5503L10.2061 30.5147C10.4681 30.9784 10.9042 31.3185 11.4177 31.4595Z" stroke="url(#paint0_linear_7_18)" stroke-width="2"/>
<mask id="path-3-outside-1_7_18" maskUnits="userSpaceOnUse" x="30" y="7" width="100" height="33" fill="black">
<rect fill="white" x="30" y="7" width="100" height="33"/>
<path d="M41.08 31.27C39.44 31.27 37.93 30.95 36.55 30.31C35.17 29.65 34.07 28.77 33.25 27.67C32.45 26.55 32.05 25.35 32.05 24.07V16.93C32.05 15.65 32.45 14.46 33.25 13.36C34.07 12.24 35.17 11.36 36.55 10.72C37.93 10.06 39.44 9.73 41.08 9.73C42.72 9.73 44.23 10.06 45.61 10.72C46.99 11.36 48.08 12.24 48.88 13.36C49.7 14.46 50.11 15.65 50.11 16.93V24.07C50.11 25.35 49.7 26.55 48.88 27.67C48.08 28.77 46.99 29.65 45.61 30.31C44.23 30.95 42.72 31.27 41.08 31.27ZM41.08 27.43C42.44 27.43 43.55 27.11 44.41 26.47C45.27 25.83 45.7 25 45.7 23.98V17.02C45.7 16 45.27 15.17 44.41 14.53C43.55 13.89 42.44 13.57 41.08 13.57C39.72 13.57 38.61 13.89 37.75 14.53C36.89 15.17 36.46 16 36.46 17.02V23.98C36.46 25 36.89 25.83 37.75 26.47C38.61 27.11 39.72 27.43 41.08 27.43ZM52.8063 18.85C52.8063 17.85 53.1363 17.08 53.7963 16.54C54.4563 16 55.4363 15.73 56.7363 15.73V17.5C56.4363 17.82 56.1863 18.16 55.9863 18.52L56.1963 18.64C56.7963 17.72 57.5563 17.01 58.4763 16.51C59.4163 15.99 60.4563 15.73 61.5963 15.73C62.5963 15.73 63.4763 15.96 64.2363 16.42C65.0163 16.88 65.6263 17.52 66.0663 18.34C66.5063 19.14 66.7263 20.04 66.7263 21.04V28.87C66.7263 29.73 66.3863 30.35 65.7063 30.73C65.0263 31.09 63.9963 31.27 62.6163 31.27V21.67C62.6163 20.99 62.3963 20.42 61.9563 19.96C61.5363 19.5 60.9363 19.27 60.1563 19.27C59.1963 19.27 58.4163 19.58 57.8163 20.2C57.2163 20.82 56.9163 21.6 56.9163 22.54V28.87C56.9163 29.73 56.5763 30.35 55.8963 30.73C55.2363 31.09 54.2063 31.27 52.8063 31.27V18.85ZM71.5316 37.27C70.6916 37.27 70.0316 36.97 69.5516 36.37C69.0716 35.79 68.8316 34.93 68.8316 33.79C69.4116 33.91 69.9416 33.97 70.4216 33.97C70.9216 33.97 71.3316 33.89 71.6516 33.73C71.9716 33.59 72.2716 33.32 72.5516 32.92C72.8516 32.52 73.1816 31.92 73.5416 31.12L73.9916 30.1L68.2316 16.06C68.3716 15.96 68.6316 15.88 69.0116 15.82C69.4116 15.76 69.7416 15.73 70.0016 15.73C70.6216 15.73 71.1916 15.86 71.7116 16.12C72.2516 16.38 72.6116 16.75 72.7916 17.23L75.7316 25.06L75.2216 26.53L75.4916 26.62L79.1516 17.23C79.3516 16.73 79.7016 16.36 80.2016 16.12C80.7216 15.86 81.3016 15.73 81.9416 15.73C82.2016 15.73 82.5216 15.76 82.9016 15.82C83.3016 15.88 83.5716 15.96 83.7116 16.06L77.0216 32.32C76.3216 34.02 75.5416 35.27 74.6816 36.07C73.8416 36.87 72.7916 37.27 71.5316 37.27ZM86.8021 31.27C86.3821 31.27 85.9521 31.2 85.5121 31.06C85.0721 30.94 84.7221 30.74 84.4621 30.46L89.6821 23.29L84.9121 16.33C85.0721 16.15 85.3821 16.01 85.8421 15.91C86.3021 15.79 86.7121 15.73 87.0721 15.73C88.2321 15.73 89.0121 16.05 89.4121 16.69L91.8721 20.65L91.2421 21.52L91.4821 21.7L94.7221 16.69C95.1421 16.05 95.9721 15.73 97.2121 15.73C97.5721 15.73 97.9521 15.79 98.3521 15.91C98.7721 16.01 99.0621 16.15 99.2221 16.33L94.4221 23.29L99.6721 30.46C99.4121 30.74 99.0821 30.94 98.6821 31.06C98.2821 31.2 97.8821 31.27 97.4821 31.27C97.0421 31.27 96.6021 31.19 96.1621 31.03C95.7421 30.87 95.4421 30.67 95.2621 30.43L92.0521 25.66L88.8721 30.43C88.6921 30.69 88.4121 30.89 88.0321 31.03C87.6521 31.19 87.2421 31.27 86.8021 31.27ZM109.879 31.27C108.159 31.27 106.609 30.93 105.229 30.25C103.869 29.55 102.799 28.58 102.019 27.34C101.259 26.1 100.879 24.71 100.879 23.17V12.91C100.879 11.87 101.249 11.08 101.989 10.54C102.749 10 103.849 9.73 105.289 9.73V23.17C105.289 24.47 105.699 25.51 106.519 26.29C107.359 27.05 108.479 27.43 109.879 27.43C111.279 27.43 112.389 27.05 113.209 26.29C114.049 25.51 114.469 24.47 114.469 23.17V12.91C114.469 11.87 114.839 11.08 115.579 10.54C116.339 10 117.439 9.73 118.879 9.73V23.17C118.879 24.71 118.489 26.1 117.709 27.34C116.949 28.58 115.879 29.55 114.499 30.25C113.139 30.93 111.599 31.27 109.879 31.27ZM122.635 12.94C122.635 11.94 123.015 11.16 123.775 10.6C124.555 10.02 125.645 9.73 127.045 9.73V28.06C127.045 29.08 126.655 29.87 125.875 30.43C125.115 30.99 124.035 31.27 122.635 31.27V12.94Z"/>
</mask>
<path d="M41.08 31.27C39.44 31.27 37.93 30.95 36.55 30.31C35.17 29.65 34.07 28.77 33.25 27.67C32.45 26.55 32.05 25.35 32.05 24.07V16.93C32.05 15.65 32.45 14.46 33.25 13.36C34.07 12.24 35.17 11.36 36.55 10.72C37.93 10.06 39.44 9.73 41.08 9.73C42.72 9.73 44.23 10.06 45.61 10.72C46.99 11.36 48.08 12.24 48.88 13.36C49.7 14.46 50.11 15.65 50.11 16.93V24.07C50.11 25.35 49.7 26.55 48.88 27.67C48.08 28.77 46.99 29.65 45.61 30.31C44.23 30.95 42.72 31.27 41.08 31.27ZM41.08 27.43C42.44 27.43 43.55 27.11 44.41 26.47C45.27 25.83 45.7 25 45.7 23.98V17.02C45.7 16 45.27 15.17 44.41 14.53C43.55 13.89 42.44 13.57 41.08 13.57C39.72 13.57 38.61 13.89 37.75 14.53C36.89 15.17 36.46 16 36.46 17.02V23.98C36.46 25 36.89 25.83 37.75 26.47C38.61 27.11 39.72 27.43 41.08 27.43ZM52.8063 18.85C52.8063 17.85 53.1363 17.08 53.7963 16.54C54.4563 16 55.4363 15.73 56.7363 15.73V17.5C56.4363 17.82 56.1863 18.16 55.9863 18.52L56.1963 18.64C56.7963 17.72 57.5563 17.01 58.4763 16.51C59.4163 15.99 60.4563 15.73 61.5963 15.73C62.5963 15.73 63.4763 15.96 64.2363 16.42C65.0163 16.88 65.6263 17.52 66.0663 18.34C66.5063 19.14 66.7263 20.04 66.7263 21.04V28.87C66.7263 29.73 66.3863 30.35 65.7063 30.73C65.0263 31.09 63.9963 31.27 62.6163 31.27V21.67C62.6163 20.99 62.3963 20.42 61.9563 19.96C61.5363 19.5 60.9363 19.27 60.1563 19.27C59.1963 19.27 58.4163 19.58 57.8163 20.2C57.2163 20.82 56.9163 21.6 56.9163 22.54V28.87C56.9163 29.73 56.5763 30.35 55.8963 30.73C55.2363 31.09 54.2063 31.27 52.8063 31.27V18.85ZM71.5316 37.27C70.6916 37.27 70.0316 36.97 69.5516 36.37C69.0716 35.79 68.8316 34.93 68.8316 33.79C69.4116 33.91 69.9416 33.97 70.4216 33.97C70.9216 33.97 71.3316 33.89 71.6516 33.73C71.9716 33.59 72.2716 33.32 72.5516 32.92C72.8516 32.52 73.1816 31.92 73.5416 31.12L73.9916 30.1L68.2316 16.06C68.3716 15.96 68.6316 15.88 69.0116 15.82C69.4116 15.76 69.7416 15.73 70.0016 15.73C70.6216 15.73 71.1916 15.86 71.7116 16.12C72.2516 16.38 72.6116 16.75 72.7916 17.23L75.7316 25.06L75.2216 26.53L75.4916 26.62L79.1516 17.23C79.3516 16.73 79.7016 16.36 80.2016 16.12C80.7216 15.86 81.3016 15.73 81.9416 15.73C82.2016 15.73 82.5216 15.76 82.9016 15.82C83.3016 15.88 83.5716 15.96 83.7116 16.06L77.0216 32.32C76.3216 34.02 75.5416 35.27 74.6816 36.07C73.8416 36.87 72.7916 37.27 71.5316 37.27ZM86.8021 31.27C86.3821 31.27 85.9521 31.2 85.5121 31.06C85.0721 30.94 84.7221 30.74 84.4621 30.46L89.6821 23.29L84.9121 16.33C85.0721 16.15 85.3821 16.01 85.8421 15.91C86.3021 15.79 86.7121 15.73 87.0721 15.73C88.2321 15.73 89.0121 16.05 89.4121 16.69L91.8721 20.65L91.2421 21.52L91.4821 21.7L94.7221 16.69C95.1421 16.05 95.9721 15.73 97.2121 15.73C97.5721 15.73 97.9521 15.79 98.3521 15.91C98.7721 16.01 99.0621 16.15 99.2221 16.33L94.4221 23.29L99.6721 30.46C99.4121 30.74 99.0821 30.94 98.6821 31.06C98.2821 31.2 97.8821 31.27 97.4821 31.27C97.0421 31.27 96.6021 31.19 96.1621 31.03C95.7421 30.87 95.4421 30.67 95.2621 30.43L92.0521 25.66L88.8721 30.43C88.6921 30.69 88.4121 30.89 88.0321 31.03C87.6521 31.19 87.2421 31.27 86.8021 31.27ZM109.879 31.27C108.159 31.27 106.609 30.93 105.229 30.25C103.869 29.55 102.799 28.58 102.019 27.34C101.259 26.1 100.879 24.71 100.879 23.17V12.91C100.879 11.87 101.249 11.08 101.989 10.54C102.749 10 103.849 9.73 105.289 9.73V23.17C105.289 24.47 105.699 25.51 106.519 26.29C107.359 27.05 108.479 27.43 109.879 27.43C111.279 27.43 112.389 27.05 113.209 26.29C114.049 25.51 114.469 24.47 114.469 23.17V12.91C114.469 11.87 114.839 11.08 115.579 10.54C116.339 10 117.439 9.73 118.879 9.73V23.17C118.879 24.71 118.489 26.1 117.709 27.34C116.949 28.58 115.879 29.55 114.499 30.25C113.139 30.93 111.599 31.27 109.879 31.27ZM122.635 12.94C122.635 11.94 123.015 11.16 123.775 10.6C124.555 10.02 125.645 9.73 127.045 9.73V28.06C127.045 29.08 126.655 29.87 125.875 30.43C125.115 30.99 124.035 31.27 122.635 31.27V12.94Z" fill="black"/>
<path d="M36.55 30.31L35.6871 32.1143L35.6978 32.1194L35.7085 32.1244L36.55 30.31ZM33.25 27.67L31.6225 28.8325L31.6344 28.849L31.6465 28.8653L33.25 27.67ZM33.25 13.36L31.6363 12.1785L31.6325 12.1837L33.25 13.36ZM36.55 10.72L37.3914 12.5344L37.4022 12.5294L37.4129 12.5243L36.55 10.72ZM45.61 10.72L44.7471 12.5243L44.7578 12.5294L44.7686 12.5344L45.61 10.72ZM48.88 13.36L47.2525 14.5225L47.2644 14.539L47.2765 14.5553L48.88 13.36ZM48.88 27.67L47.2663 26.4885L47.2625 26.4937L48.88 27.67ZM45.61 30.31L46.4515 32.1244L46.4622 32.1194L46.4729 32.1143L45.61 30.31ZM44.41 26.47L45.604 28.0745H45.604L44.41 26.47ZM44.41 14.53L45.604 12.9255L45.604 12.9255L44.41 14.53ZM41.08 29.27C39.7076 29.27 38.4876 29.004 37.3914 28.4956L35.7085 32.1244C37.3724 32.896 39.1724 33.27 41.08 33.27V29.27ZM37.4129 28.5057C36.2913 27.9693 35.4582 27.2859 34.8535 26.4747L31.6465 28.8653C32.6818 30.2541 34.0487 31.3307 35.6871 32.1143L37.4129 28.5057ZM34.8775 26.5075C34.3005 25.6998 34.05 24.9012 34.05 24.07H30.05C30.05 25.7988 30.5995 27.4002 31.6225 28.8325L34.8775 26.5075ZM34.05 24.07V16.93H30.05V24.07H34.05ZM34.05 16.93C34.05 16.0999 34.2996 15.3172 34.8675 14.5363L31.6325 12.1837C30.6004 13.6028 30.05 15.2001 30.05 16.93H34.05ZM34.8637 14.5415C35.4652 13.7199 36.2881 13.0461 37.3914 12.5344L35.7085 8.90562C34.0519 9.67393 32.6748 10.7601 31.6363 12.1785L34.8637 14.5415ZM37.4129 12.5243C38.5044 12.0023 39.7167 11.73 41.08 11.73V7.73C39.1633 7.73 37.3556 8.11773 35.6871 8.91573L37.4129 12.5243ZM41.08 11.73C42.4433 11.73 43.6556 12.0023 44.7471 12.5243L46.4729 8.91573C44.8044 8.11773 42.9967 7.73 41.08 7.73V11.73ZM44.7686 12.5344C45.8684 13.0444 46.6743 13.713 47.2525 14.5225L50.5075 12.1975C49.4857 10.767 48.1116 9.67555 46.4515 8.90562L44.7686 12.5344ZM47.2765 14.5553C47.8587 15.3364 48.11 16.1125 48.11 16.93H52.11C52.11 15.1875 51.5413 13.5836 50.4835 12.1647L47.2765 14.5553ZM48.11 16.93V24.07H52.11V16.93H48.11ZM48.11 24.07C48.11 24.8887 47.8577 25.6807 47.2663 26.4885L50.4937 28.8515C51.5423 27.4193 52.11 25.8113 52.11 24.07H48.11ZM47.2625 26.4937C46.6813 27.2928 45.8652 27.971 44.7471 28.5057L46.4729 32.1143C48.1148 31.329 49.4787 30.2472 50.4975 28.8463L47.2625 26.4937ZM44.7686 28.4956C43.6724 29.004 42.4524 29.27 41.08 29.27V33.27C42.9876 33.27 44.7876 32.896 46.4515 32.1244L44.7686 28.4956ZM41.08 29.43C42.7536 29.43 44.3158 29.0331 45.604 28.0745L43.216 24.8655C42.7842 25.1869 42.1264 25.43 41.08 25.43V29.43ZM45.604 28.0745C46.9409 27.0796 47.7 25.6689 47.7 23.98H43.7C43.7 24.3311 43.5991 24.5804 43.216 24.8655L45.604 28.0745ZM47.7 23.98V17.02H43.7V23.98H47.7ZM47.7 17.02C47.7 15.3311 46.9409 13.9204 45.604 12.9255L43.216 16.1345C43.5991 16.4196 43.7 16.6689 43.7 17.02H47.7ZM45.604 12.9255C44.3158 11.9669 42.7536 11.57 41.08 11.57V15.57C42.1264 15.57 42.7842 15.8131 43.216 16.1345L45.604 12.9255ZM41.08 11.57C39.4064 11.57 37.8442 11.9669 36.556 12.9255L38.944 16.1345C39.3758 15.8131 40.0336 15.57 41.08 15.57V11.57ZM36.556 12.9255C35.2191 13.9204 34.46 15.3311 34.46 17.02H38.46C38.46 16.6689 38.5609 16.4196 38.944 16.1345L36.556 12.9255ZM34.46 17.02V23.98H38.46V17.02H34.46ZM34.46 23.98C34.46 25.6689 35.2191 27.0796 36.556 28.0745L38.944 24.8655C38.5609 24.5804 38.46 24.3311 38.46 23.98H34.46ZM36.556 28.0745C37.8442 29.0331 39.4064 29.43 41.08 29.43V25.43C40.0336 25.43 39.3758 25.1869 38.944 24.8655L36.556 28.0745ZM53.7962 16.54L52.5298 14.9921H52.5298L53.7962 16.54ZM56.7362 15.73H58.7362V13.73H56.7362V15.73ZM56.7362 17.5L58.1953 18.8679L58.7362 18.2909V17.5H56.7362ZM55.9862 18.52L54.2379 17.5487L53.2783 19.2761L54.994 20.2565L55.9862 18.52ZM56.1963 18.64L55.204 20.3765L56.8413 21.3121L57.8715 19.7325L56.1963 18.64ZM58.4762 16.51L59.4313 18.2673L59.4378 18.2637L59.4444 18.2601L58.4762 16.51ZM64.2363 16.42L63.2006 18.131L63.2104 18.1369L63.2203 18.1427L64.2363 16.42ZM66.0662 18.34L64.3039 19.2856L64.3088 19.2948L64.3138 19.3038L66.0662 18.34ZM65.7062 30.73L66.642 32.4976L66.6621 32.487L66.6819 32.4759L65.7062 30.73ZM62.6163 31.27H60.6163V33.27H62.6163V31.27ZM61.9563 19.96L60.4793 21.3085L60.4949 21.3257L60.511 21.3424L61.9563 19.96ZM57.8162 20.2L59.2535 21.5908L59.2535 21.5908L57.8162 20.2ZM55.8962 30.73L56.854 32.4858L56.8629 32.4809L56.8719 32.4759L55.8962 30.73ZM52.8062 31.27H50.8062V33.27H52.8062V31.27ZM54.8062 18.85C54.8062 18.3344 54.9495 18.1805 55.0627 18.0879L52.5298 14.9921C51.323 15.9795 50.8062 17.3656 50.8062 18.85H54.8062ZM55.0627 18.0879C55.2201 17.9591 55.6668 17.73 56.7362 17.73V13.73C55.2057 13.73 53.6924 14.0409 52.5298 14.9921L55.0627 18.0879ZM54.7362 15.73V17.5H58.7362V15.73H54.7362ZM55.2772 16.1321C54.8721 16.5642 54.5227 17.0361 54.2379 17.5487L57.7346 19.4913C57.8498 19.2839 58.0004 19.0758 58.1953 18.8679L55.2772 16.1321ZM54.994 20.2565L55.204 20.3765L57.1885 16.9035L56.9785 16.7835L54.994 20.2565ZM57.8715 19.7325C58.2994 19.0763 58.8172 18.601 59.4313 18.2673L57.5212 14.7528C56.2953 15.419 55.2931 16.3637 54.521 17.5475L57.8715 19.7325ZM59.4444 18.2601C60.0698 17.9141 60.7735 17.73 61.5963 17.73V13.73C60.139 13.73 58.7627 14.0659 57.5081 14.7599L59.4444 18.2601ZM61.5963 17.73C62.2782 17.73 62.7909 17.883 63.2006 18.131L65.2719 14.709C64.1616 14.037 62.9143 13.73 61.5963 13.73V17.73ZM63.2203 18.1427C63.6761 18.4115 64.0319 18.7787 64.3039 19.2856L67.8286 17.3944C67.2206 16.2613 66.3564 15.3485 65.2522 14.6973L63.2203 18.1427ZM64.3138 19.3038C64.5763 19.781 64.7262 20.3441 64.7262 21.04H68.7262C68.7262 19.7359 68.4362 18.499 67.8187 17.3762L64.3138 19.3038ZM64.7262 21.04V28.87H68.7262V21.04H64.7262ZM64.7262 28.87C64.7262 28.9538 64.7179 29.002 64.7133 29.0222C64.709 29.0409 64.7078 29.0362 64.7176 29.0183C64.7279 28.9996 64.7412 28.9828 64.7524 28.9719C64.7625 28.9619 64.7596 28.9679 64.7306 28.9841L66.6819 32.4759C68.0707 31.6998 68.7262 30.3627 68.7262 28.87H64.7262ZM64.7705 28.9624C64.5254 29.0921 63.8909 29.27 62.6163 29.27V33.27C64.1016 33.27 65.5271 33.0879 66.642 32.4976L64.7705 28.9624ZM64.6162 31.27V21.67H60.6163V31.27H64.6162ZM64.6162 21.67C64.6162 20.5136 64.2234 19.4368 63.4015 18.5776L60.511 21.3424C60.5691 21.4032 60.6163 21.4664 60.6163 21.67H64.6162ZM63.4332 18.6115C62.5428 17.6362 61.3464 17.27 60.1562 17.27V21.27C60.3524 21.27 60.447 21.2991 60.4754 21.31C60.4891 21.3152 60.4912 21.3176 60.4869 21.3147C60.4824 21.3116 60.4793 21.3085 60.4793 21.3085L63.4332 18.6115ZM60.1562 17.27C58.7216 17.27 57.4001 17.754 56.379 18.8092L59.2535 21.5908C59.4324 21.406 59.6709 21.27 60.1562 21.27V17.27ZM56.379 18.8092C55.3841 19.8372 54.9163 21.1318 54.9163 22.54H58.9163C58.9163 22.0682 59.0484 21.8028 59.2535 21.5908L56.379 18.8092ZM54.9163 22.54V28.87H58.9163V22.54H54.9163ZM54.9163 28.87C54.9163 28.9538 54.9079 29.002 54.9033 29.0222C54.899 29.0409 54.8978 29.0363 54.9076 29.0183C54.9179 28.9996 54.9312 28.9828 54.9424 28.9719C54.9525 28.9619 54.9496 28.9679 54.9206 28.9841L56.8719 32.4759C58.2607 31.6998 58.9163 30.3627 58.9163 28.87H54.9163ZM54.9385 28.9742C54.7295 29.0882 54.1141 29.27 52.8062 29.27V33.27C54.2984 33.27 55.743 33.0918 56.854 32.4858L54.9385 28.9742ZM54.8062 31.27V18.85H50.8062V31.27H54.8062ZM69.5516 36.37L71.1134 35.1206L71.103 35.1077L71.0924 35.0949L69.5516 36.37ZM68.8316 33.79L69.2369 31.8315L66.8316 31.3338V33.79H68.8316ZM71.6516 33.73L70.85 31.8977L70.8031 31.9182L70.7572 31.9411L71.6516 33.73ZM72.5516 32.92L70.9516 31.72L70.932 31.7462L70.9132 31.7731L72.5516 32.92ZM73.5416 31.12L75.3655 31.9407L75.3685 31.934L75.3715 31.9273L73.5416 31.12ZM73.9916 30.1L75.8215 30.9073L76.1651 30.1284L75.842 29.3409L73.9916 30.1ZM68.2316 16.06L67.0692 14.4325L65.78 15.3534L66.3813 16.8191L68.2316 16.06ZM69.0116 15.82L68.715 13.8421L68.7073 13.8433L68.6997 13.8445L69.0116 15.82ZM71.7116 16.12L70.8172 17.9089L70.8306 17.9155L70.844 17.922L71.7116 16.12ZM72.7916 17.23L70.919 17.9322L70.9193 17.933L72.7916 17.23ZM75.7316 25.06L77.6212 25.7155L77.8579 25.0332L77.604 24.357L75.7316 25.06ZM75.2216 26.53L73.3321 25.8745L72.6685 27.7872L74.5892 28.4274L75.2216 26.53ZM75.4916 26.62L74.8592 28.5174L76.6641 29.119L77.3551 27.3463L75.4916 26.62ZM79.1516 17.23L77.2947 16.4872L77.2914 16.4954L77.2882 16.5037L79.1516 17.23ZM80.2016 16.12L81.0671 17.923L81.0816 17.9161L81.0961 17.9089L80.2016 16.12ZM82.9016 15.82L82.5897 17.7955L82.5973 17.7967L82.605 17.7979L82.9016 15.82ZM83.7116 16.06L85.5612 16.821L86.1646 15.3543L84.8741 14.4325L83.7116 16.06ZM77.0216 32.32L78.871 33.0815L78.8712 33.081L77.0216 32.32ZM74.6816 36.07L73.3194 34.6056L73.3108 34.6136L73.3023 34.6217L74.6816 36.07ZM71.5316 35.27C71.2345 35.27 71.1752 35.1978 71.1134 35.1206L67.9899 37.6194C68.8881 38.7422 70.1488 39.27 71.5316 39.27V35.27ZM71.0924 35.0949C71.0284 35.0175 70.8316 34.6939 70.8316 33.79H66.8316C66.8316 35.1661 67.1149 36.5625 68.0109 37.6451L71.0924 35.0949ZM68.4264 35.7485C69.1101 35.89 69.7783 35.97 70.4216 35.97V31.97C70.105 31.97 69.7132 31.93 69.2369 31.8315L68.4264 35.7485ZM70.4216 35.97C71.1161 35.97 71.8604 35.8617 72.5461 35.5189L70.7572 31.9411C70.7834 31.928 70.7775 31.936 70.7211 31.947C70.6641 31.9582 70.5673 31.97 70.4216 31.97V35.97ZM72.4533 35.5623C73.2182 35.2276 73.7795 34.6535 74.1901 34.0669L70.9132 31.7731C70.8427 31.8738 70.7954 31.9209 70.7787 31.9359C70.7636 31.9495 70.7861 31.9257 70.85 31.8977L72.4533 35.5623ZM74.1516 34.12C74.5821 33.546 74.983 32.7906 75.3655 31.9407L71.7178 30.2993C71.3803 31.0494 71.1212 31.494 70.9516 31.72L74.1516 34.12ZM75.3715 31.9273L75.8215 30.9073L72.1618 29.2927L71.7118 30.3127L75.3715 31.9273ZM75.842 29.3409L70.082 15.3009L66.3813 16.8191L72.1413 30.8591L75.842 29.3409ZM69.3941 17.6875C69.2974 17.7565 69.219 17.795 69.1799 17.8126C69.1388 17.8311 69.1161 17.8377 69.1198 17.8366C69.1225 17.8357 69.1402 17.8305 69.1765 17.8225C69.2124 17.8147 69.2608 17.8054 69.3236 17.7955L68.6997 13.8445C68.3024 13.9072 67.6239 14.0363 67.0692 14.4325L69.3941 17.6875ZM69.3083 17.7979C69.6576 17.7455 69.8796 17.73 70.0016 17.73V13.73C69.6037 13.73 69.1656 13.7745 68.715 13.8421L69.3083 17.7979ZM70.0016 17.73C70.3323 17.73 70.5932 17.7969 70.8172 17.9089L72.6061 14.3311C71.7901 13.9231 70.911 13.73 70.0016 13.73V17.73ZM70.844 17.922C70.9364 17.9665 70.9605 17.9947 70.9532 17.9872C70.9499 17.9838 70.9427 17.9756 70.9347 17.9631C70.9268 17.9505 70.9216 17.9393 70.919 17.9322L74.6643 16.5278C74.2731 15.4846 73.4993 14.761 72.5793 14.318L70.844 17.922ZM70.9193 17.933L73.8593 25.763L77.604 24.357L74.664 16.527L70.9193 17.933ZM73.8421 24.4045L73.3321 25.8745L77.1112 27.1855L77.6212 25.7155L73.8421 24.4045ZM74.5892 28.4274L74.8592 28.5174L76.1241 24.7226L75.8541 24.6326L74.5892 28.4274ZM77.3551 27.3463L81.0151 17.9563L77.2882 16.5037L73.6282 25.8937L77.3551 27.3463ZM81.0086 17.9728C81.0153 17.956 81.0198 17.9488 81.0203 17.9481C81.0206 17.9475 81.0194 17.9494 81.0171 17.9519C81.0148 17.9543 81.0152 17.9533 81.0209 17.9493C81.0268 17.945 81.041 17.9356 81.0671 17.923L79.3362 14.317C78.3995 14.7666 77.6868 15.507 77.2947 16.4872L81.0086 17.9728ZM81.0961 17.9089C81.3113 17.8013 81.5803 17.73 81.9416 17.73V13.73C81.0229 13.73 80.132 13.9187 79.3072 14.3311L81.0961 17.9089ZM81.9416 17.73C82.0605 17.73 82.2689 17.7449 82.5897 17.7955L83.2136 13.8445C82.7744 13.7751 82.3428 13.73 81.9416 13.73V17.73ZM82.605 17.7979C82.6739 17.8082 82.7277 17.818 82.7682 17.8265C82.8093 17.8351 82.8306 17.841 82.836 17.8426C82.8426 17.8446 82.8203 17.8385 82.7783 17.82C82.7564 17.8104 82.7256 17.7959 82.6882 17.7753C82.6511 17.7549 82.6034 17.7262 82.5492 17.6875L84.8741 14.4325C84.3054 14.0263 83.5966 13.9019 83.1983 13.8421L82.605 17.7979ZM81.8621 15.299L75.1721 31.559L78.8712 33.081L85.5612 16.821L81.8621 15.299ZM75.1723 31.5585C74.5265 33.1268 73.8826 34.0818 73.3194 34.6056L76.0438 37.5344C77.2007 36.4582 78.1168 34.9132 78.871 33.0815L75.1723 31.5585ZM73.3023 34.6217C72.8679 35.0355 72.3265 35.27 71.5316 35.27V39.27C73.2567 39.27 74.8154 38.7045 76.061 37.5183L73.3023 34.6217ZM85.5121 31.06L86.1185 29.1541L86.0787 29.1415L86.0383 29.1305L85.5121 31.06ZM84.4621 30.46L82.8452 29.2829L81.876 30.6142L82.9965 31.8209L84.4621 30.46ZM89.6821 23.29L91.299 24.4671L92.1306 23.3249L91.3319 22.1594L89.6821 23.29ZM84.9121 16.33L83.4173 15.0013L82.3781 16.1704L83.2624 17.4606L84.9121 16.33ZM85.8421 15.91L86.267 17.8644L86.3072 17.8556L86.347 17.8452L85.8421 15.91ZM89.4121 16.69L91.111 15.6346L91.1081 15.63L89.4121 16.69ZM91.8721 20.65L93.492 21.823L94.2796 20.7353L93.571 19.5946L91.8721 20.65ZM91.2421 21.52L89.6222 20.347L88.4687 21.9399L90.0421 23.12L91.2421 21.52ZM91.4821 21.7L90.2821 23.3L91.9973 24.5864L93.1615 22.7861L91.4821 21.7ZM94.7221 16.69L93.05 15.5927L93.0427 15.6039L94.7221 16.69ZM98.3521 15.91L97.7774 17.8257L97.8327 17.8422L97.8889 17.8556L98.3521 15.91ZM99.2221 16.33L100.869 17.4655L101.759 16.1739L100.717 15.0013L99.2221 16.33ZM94.4221 23.29L92.7757 22.1545L91.9687 23.3247L92.8084 24.4716L94.4221 23.29ZM99.6721 30.46L101.138 31.8209L102.261 30.6108L101.286 29.2784L99.6721 30.46ZM98.6821 31.06L98.1074 29.1443L98.0641 29.1573L98.0214 29.1723L98.6821 31.06ZM96.1621 31.03L95.4501 32.899L95.4643 32.9044L95.4786 32.9096L96.1621 31.03ZM95.2621 30.43L93.6028 31.5466L93.6314 31.5891L93.6621 31.63L95.2621 30.43ZM92.0521 25.66L93.7114 24.5434L92.0443 22.0662L90.388 24.5506L92.0521 25.66ZM88.8721 30.43L90.5165 31.5684L90.5265 31.554L90.5362 31.5394L88.8721 30.43ZM88.0321 31.03L87.3407 29.1533L87.298 29.1691L87.256 29.1867L88.0321 31.03ZM86.8021 29.27C86.6072 29.27 86.3818 29.2379 86.1185 29.1541L84.9057 32.9659C85.5224 33.1621 86.157 33.27 86.8021 33.27V29.27ZM86.0383 29.1305C85.9603 29.1092 85.9226 29.0896 85.9119 29.0835C85.9031 29.0785 85.9125 29.0827 85.9277 29.0991L82.9965 31.8209C83.5559 32.4233 84.2562 32.7905 84.9859 32.9895L86.0383 29.1305ZM86.079 31.6371L91.299 24.4671L88.0652 22.1129L82.8452 29.2829L86.079 31.6371ZM91.3319 22.1594L86.5619 15.1994L83.2624 17.4606L88.0324 24.4206L91.3319 22.1594ZM86.4069 17.6587C86.3201 17.7564 86.2393 17.8193 86.1858 17.8557C86.1324 17.8921 86.096 17.909 86.0878 17.9127C86.079 17.9167 86.088 17.912 86.1204 17.9019C86.1522 17.892 86.2001 17.8789 86.267 17.8644L85.4173 13.9556C84.8766 14.0732 84.0224 14.3205 83.4173 15.0013L86.4069 17.6587ZM86.347 17.8452C86.6914 17.7554 86.9268 17.73 87.0721 17.73V13.73C86.4974 13.73 85.9128 13.8246 85.3373 13.9748L86.347 17.8452ZM87.0721 17.73C87.4832 17.73 87.6911 17.7888 87.768 17.8203C87.801 17.8339 87.7988 17.8378 87.7787 17.8214C87.7569 17.8037 87.7336 17.778 87.7161 17.75L91.1081 15.63C90.1742 14.1358 88.529 13.73 87.0721 13.73V17.73ZM87.7132 17.7454L90.1732 21.7054L93.571 19.5946L91.111 15.6346L87.7132 17.7454ZM90.2522 19.477L89.6222 20.347L92.862 22.693L93.492 21.823L90.2522 19.477ZM90.0421 23.12L90.2821 23.3L92.6821 20.1L92.4421 19.92L90.0421 23.12ZM93.1615 22.7861L96.4015 17.7761L93.0427 15.6039L89.8027 20.6139L93.1615 22.7861ZM96.3942 17.7873C96.3392 17.8711 96.2889 17.8709 96.3791 17.8361C96.4934 17.792 96.7483 17.73 97.2121 17.73V13.73C95.7275 13.73 94.0256 14.1061 93.05 15.5927L96.3942 17.7873ZM97.2121 17.73C97.3492 17.73 97.5347 17.7529 97.7774 17.8257L98.9268 13.9943C98.3695 13.8271 97.795 13.73 97.2121 13.73V17.73ZM97.8889 17.8556C98.0028 17.8827 98.0353 17.9008 98.0151 17.8911C97.9982 17.8829 97.8708 17.8202 97.7273 17.6587L100.717 15.0013C100.142 14.355 99.3577 14.0935 98.8154 13.9644L97.8889 17.8556ZM97.5757 15.1945L92.7757 22.1545L96.0685 24.4255L100.869 17.4655L97.5757 15.1945ZM92.8084 24.4716L98.0584 31.6416L101.286 29.2784L96.0358 22.1084L92.8084 24.4716ZM98.2065 29.0991C98.2039 29.1019 98.2011 29.1047 98.193 29.1096C98.184 29.1151 98.1586 29.129 98.1074 29.1443L99.2568 32.9757C99.9652 32.7631 100.613 32.3857 101.138 31.8209L98.2065 29.0991ZM98.0214 29.1723C97.821 29.2424 97.644 29.27 97.4821 29.27V33.27C98.1202 33.27 98.7432 33.1576 99.3428 32.9477L98.0214 29.1723ZM97.4821 29.27C97.2898 29.27 97.0807 29.2359 96.8456 29.1504L95.4786 32.9096C96.1236 33.1441 96.7944 33.27 97.4821 33.27V29.27ZM96.8741 29.161C96.8242 29.142 96.7882 29.1257 96.764 29.1136C96.7398 29.1015 96.7301 29.095 96.7315 29.0959C96.7332 29.097 96.7917 29.1362 96.8621 29.23L93.6621 31.63C94.1553 32.2876 94.8412 32.667 95.4501 32.899L96.8741 29.161ZM96.9214 29.3134L93.7114 24.5434L90.3928 26.7766L93.6028 31.5466L96.9214 29.3134ZM90.388 24.5506L87.208 29.3206L90.5362 31.5394L93.7162 26.7694L90.388 24.5506ZM87.2277 29.2916C87.2801 29.216 87.3335 29.1697 87.3646 29.1475C87.3928 29.1274 87.392 29.1344 87.3407 29.1533L88.7235 32.9067C89.3813 32.6643 90.0443 32.2505 90.5165 31.5684L87.2277 29.2916ZM87.256 29.1867C87.1379 29.2365 86.9937 29.27 86.8021 29.27V33.27C87.4905 33.27 88.1664 33.1435 88.8082 32.8733L87.256 29.1867ZM105.229 30.25L104.314 32.0283L104.329 32.0363L104.345 32.044L105.229 30.25ZM102.019 27.34L100.314 28.3851L100.32 28.395L100.326 28.4049L102.019 27.34ZM101.989 10.54L100.83 8.90964L100.82 8.91696L100.81 8.92442L101.989 10.54ZM105.289 9.73H107.289V7.73H105.289V9.73ZM106.519 26.29L105.14 27.7391L105.159 27.7563L105.177 27.7731L106.519 26.29ZM113.209 26.29L114.568 27.7569L114.57 27.7556L113.209 26.29ZM115.579 10.54L114.42 8.90964L114.41 8.91696L114.4 8.92442L115.579 10.54ZM118.879 9.73H120.879V7.73H118.879V9.73ZM117.709 27.34L116.016 26.2751L116.01 26.285L116.004 26.2949L117.709 27.34ZM114.499 30.25L115.393 32.0389L115.404 32.0337L114.499 30.25ZM109.879 29.27C108.429 29.27 107.187 28.9852 106.113 28.456L104.345 32.044C106.031 32.8748 107.889 33.27 109.879 33.27V29.27ZM106.144 28.4717C105.088 27.9281 104.293 27.1983 103.712 26.2751L100.326 28.4049C101.305 29.9617 102.65 31.1719 104.314 32.0283L106.144 28.4717ZM103.724 26.2949C103.168 25.3882 102.879 24.3638 102.879 23.17H98.8789C98.8789 25.0562 99.3494 26.8118 100.314 28.3851L103.724 26.2949ZM102.879 23.17V12.91H98.8789V23.17H102.879ZM102.879 12.91C102.879 12.4094 103.019 12.2641 103.168 12.1556L100.81 8.92442C99.4787 9.89588 98.8789 11.3306 98.8789 12.91H102.879ZM103.147 12.1704C103.43 11.9695 104.053 11.73 105.289 11.73V7.73C103.645 7.73 102.068 8.03053 100.83 8.90964L103.147 12.1704ZM103.289 9.73V23.17H107.289V9.73H103.289ZM103.289 23.17C103.289 24.9287 103.863 26.5243 105.14 27.7391L107.897 24.8409C107.534 24.4957 107.289 24.0113 107.289 23.17H103.289ZM105.177 27.7731C106.466 28.9395 108.105 29.43 109.879 29.43V25.43C108.853 25.43 108.251 25.1605 107.861 24.8069L105.177 27.7731ZM109.879 29.43C111.65 29.43 113.292 28.9402 114.568 27.7569L111.849 24.8231C111.486 25.1598 110.907 25.43 109.879 25.43V29.43ZM114.57 27.7556C115.874 26.5446 116.469 24.944 116.469 23.17H112.469C112.469 23.996 112.224 24.4754 111.848 24.8244L114.57 27.7556ZM116.469 23.17V12.91H112.469V23.17H116.469ZM116.469 12.91C116.469 12.4094 116.609 12.2641 116.758 12.1556L114.4 8.92442C113.069 9.89588 112.469 11.3306 112.469 12.91H116.469ZM116.737 12.1704C117.02 11.9695 117.643 11.73 118.879 11.73V7.73C117.235 7.73 115.658 8.03053 114.42 8.90964L116.737 12.1704ZM116.879 9.73V23.17H120.879V9.73H116.879ZM116.879 23.17C116.879 24.3534 116.585 25.3708 116.016 26.2751L119.402 28.4049C120.393 26.8292 120.879 25.0666 120.879 23.17H116.879ZM116.004 26.2949C115.45 27.199 114.666 27.9226 113.594 28.4663L115.404 32.0337C117.092 31.1774 118.448 29.961 119.414 28.3851L116.004 26.2949ZM113.604 28.4611C112.557 28.985 111.329 29.27 109.879 29.27V33.27C111.868 33.27 113.721 32.875 115.393 32.0389L113.604 28.4611ZM123.775 10.6L124.961 12.2101L124.968 12.2049L123.775 10.6ZM127.045 9.73H129.045V7.73H127.045V9.73ZM125.875 30.43L124.708 28.8054L124.698 28.8126L124.688 28.8199L125.875 30.43ZM122.635 31.27H120.635V33.27H122.635V31.27ZM124.635 12.94C124.635 12.5314 124.747 12.3677 124.961 12.2101L122.588 8.98989C121.282 9.95226 120.635 11.3486 120.635 12.94H124.635ZM124.968 12.2049C125.281 11.9724 125.892 11.73 127.045 11.73V7.73C125.397 7.73 123.829 8.0676 122.581 8.99508L124.968 12.2049ZM125.045 9.73V28.06H129.045V9.73H125.045ZM125.045 28.06C125.045 28.4829 124.928 28.6477 124.708 28.8054L127.041 32.0546C128.382 31.0923 129.045 29.6771 129.045 28.06H125.045ZM124.688 28.8199C124.402 29.0307 123.804 29.27 122.635 29.27V33.27C124.265 33.27 125.827 32.9493 127.061 32.0401L124.688 28.8199ZM124.635 31.27V12.94H120.635V31.27H124.635Z" fill="url(#paint1_linear_7_18)" mask="url(#path-3-outside-1_7_18)"/>
<defs>
<linearGradient id="paint0_linear_7_18" x1="13.5" y1="6" x2="13.5" y2="33" gradientUnits="userSpaceOnUse">
<stop stop-color="#797EFF"/>
<stop offset="1" stop-color="#3239FF"/>
</linearGradient>
<linearGradient id="paint1_linear_7_18" x1="80.5" y1="0" x2="80.5" y2="39" gradientUnits="userSpaceOnUse">
<stop stop-color="#797EFF"/>
<stop offset="1" stop-color="#3239FF"/>
</linearGradient>
</defs>
</svg>
